<?xml version="1.0" standalone="no"?><!DOCTYPE svg PUBLIC "-//W3C//DTD SVG 1.1//EN" "http://www.w3.org/Graphics/SVG/1.1/DTD/svg11.dtd"><svg t="1608615278602" class="icon" viewBox="0 0 1026 1024" version="1.1" xmlns="http://www.w3.org/2000/svg" p-id="1402" xmlns:xlink="http://www.w3.org/1999/xlink" width="200.390625" height="200"><defs><style type="text/css"></style></defs><path d="M495.465 830.665c-187.138 0-264.948-168.222-268.193-175.401l62.966-28.307c2.486 5.49 62.207 134.667 205.194 134.667 153.067-1.795 211.302-129.213 213.685-134.633l63.103 27.996c-3.141 7.077-79.054 173.364-273.13 175.643l-3.625 0.034zM500.16 991.221c-256.974 0-466.034-209.060-466.034-466.034s209.060-466.034 466.034-466.034 466.034 209.060 466.034 466.034-209.060 466.034-466.034 466.034zM500.16 128.196c-218.897 0-396.991 178.094-396.991 396.991s178.094 396.991 396.991 396.991 396.991-178.094 396.991-396.991-178.059-396.991-396.991-396.991zM311.088 444.27c0 29.689 24.062 53.818 53.818 53.818s53.818-24.096 53.818-53.818-24.062-53.818-53.818-53.818-53.818 24.096-53.818 53.818zM580.765 444.27c0 29.689 24.062 53.818 53.818 53.818s53.818-24.096 53.818-53.818-24.062-53.818-53.818-53.818-53.818 24.096-53.818 53.818z" p-id="1403"></path></svg>